<svg xmlns="http://www.w3.org/2000/svg" width="144" height="52" viewBox="0 0 144 52">
  <path fill="#0AF" d="M9.784 0 7.336 6.75h33.916L43.7 0zM6.112 10.122 3.664 16.87H37.58l2.448-6.748zM2.447 20.244 0 26.992h33.916l2.446-6.748z"/>
  <path fill="#002882" d="M72.101 29.564v.142c1.55.573 3.03 1.575 3.806 2.218 2.397 2.003 3.455 4.649 3.455 8.082 0 5.652-2.961 9.729-7.825 11.017-1.48.429-3.03.572-5.923.572H50.883V10.252h13.041c2.679 0 4.511.142 6.132.571 4.724 1.288 7.826 4.579 7.826 9.8 0 2.79-.988 5.15-2.608 6.723-.705.716-1.692 1.575-3.173 2.218M59.06 33.927v10.872h5.64c1.69 0 3.242-.142 4.37-1.215s1.622-2.432 1.622-4.221c0-1.358-.354-2.646-1.058-3.576-1.199-1.502-2.68-1.86-5.216-1.86zm-.071-7.153h4.582c1.41 0 2.114 0 2.82-.215 1.904-.572 3.102-2.288 3.102-4.649 0-2.788-1.27-4.006-3.103-4.577-.776-.214-1.55-.286-3.101-.286h-4.3zm32.639 24.822V17.189H79.856v-6.937h32.709l-2.325 6.937H99.805v34.407zm23.474 0V10.252h26.507l-2.326 6.937H123.21v9.156h6.556c5.287 0 8.037 1.288 9.94 2.933 1.481 1.287 4.018 4.148 4.018 9.8 0 5.579-2.608 8.654-4.794 10.228-2.537 1.787-5.216 2.29-10.644 2.29zm8.108-6.94h6.134c2.325 0 3.735-.572 4.722-1.86.494-.643 1.198-1.788 1.198-3.934s-.704-3.647-2.114-4.72c-.845-.644-1.974-1-3.877-1h-6.063z"/>
</svg>
